{
    "accessors" : [
        {
            "bufferView" : 0,
            "componentType" : 5123,
            "count" : 2526,
            "max" : [
                1005
            ],
            "min" : [
                0
            ],
            "type" : "SCALAR"
        },
        {
            "bufferView" : 1,
            "componentType" : 5126,
            "count" : 1006,
            "max" : [
                149.51568603515625,
                80.47225189208984,
                144.65771484375
            ],
            "min" : [
                -128.43382263183594,
                -30.09308433532715,
                -57.513221740722656
            ],
            "type" : "VEC3"
        },
        {
            "bufferView" : 2,
            "componentType" : 5126,
            "count" : 1006,
            "max" : [
                1.0,
                1.0,
                1.0
            ],
            "min" : [
                -1.0,
                -1.0,
                -1.0
            ],
            "type" : "VEC3"
        },
        {
            "bufferView" : 3,
            "componentType" : 5126,
            "count" : 1006,
            "max" : [
                1.0,
                1.0,
                1.0,
                -1.0
            ],
            "min" : [
                -1.0,
                -1.0,
                -1.0,
                -1.0
            ],
            "type" : "VEC4"
        },
        {
            "bufferView" : 4,
            "componentType" : 5126,
            "count" : 1006,
            "max" : [
                0.9897820949554443,
                0.9964815974235535
            ],
            "min" : [
                0.009165281429886818,
                0.013706505298614502
            ],
            "type" : "VEC2"
        }
    ],
    "asset" : {
        "generator" : "Khronos Blender glTF 2.0 exporter",
        "version" : "2.0"
    },
    "bufferViews" : [
        {
            "buffer" : 0,
            "byteLength" : 5052,
            "byteOffset" : 0,
            "target" : 34963
        },
        {
            "buffer" : 0,
            "byteLength" : 12072,
            "byteOffset" : 5052,
            "target" : 34962
        },
        {
            "buffer" : 0,
            "byteLength" : 12072,
            "byteOffset" : 17124,
            "target" : 34962
        },
        {
            "buffer" : 0,
            "byteLength" : 16096,
            "byteOffset" : 29196,
            "target" : 34962
        },
        {
            "buffer" : 0,
            "byteLength" : 8048,
            "byteOffset" : 45292,
            "target" : 34962
        }
    ],
    "buffers" : [
        {
            "byteLength" : 53340,
            "uri" : "scene.bin"
        }
    ],
    "images" : [
        {
            "name" : "images[2]",
            "uri" : "images[2].jpg"
        },
        {
            "name" : "images[1]",
            "uri" : "images[1].png"
        },
        {
            "name" : "images[0]",
            "uri" : "images[0].jpg"
        }
    ],
    "materials" : [
        {
            "doubleSided" : true,
            "name" : "20_-_Default",
            "normalTexture" : {
                "index" : 2
            },
            "pbrMetallicRoughness" : {
                "baseColorTexture" : {
                    "index" : 0
                },
                "metallicRoughnessTexture" : {
                    "index" : 1
                }
            }
        }
    ],
    "meshes" : [
        {
            "name" : "Radio_20 - Default_0",
            "primitives" : [
                {
                    "attributes" : {
                        "NORMAL" : 2,
                        "POSITION" : 1,
                        "TANGENT" : 3,
                        "TEXCOORD_0" : 4
                    },
                    "indices" : 0,
                    "material" : 0
                }
            ]
        }
    ],
    "nodes" : [
        {
            "mesh" : 0,
            "name" : "Radio_20 - Default_0",
            "rotation" : [
                4.5349601894909e-15,
                0.0,
                -0.0,
                1.0
            ],
            "scale" : [
                0.006120357196778059,
                0.006120353005826473,
                0.006120357196778059
            ],
            "translation" : [
                0.0,
                -7.741073204670101e-08,
                0.3575000762939453
            ]
        },
        {
            "children" : [
                0
            ],
            "name" : "Untitled",
            "scale" : [
                1.0,
                0.9999999403953552,
                1.0
            ],
            "translation" : [
                0.0,
                0.0,
                -115.6868667602539
            ]
        },
        {
            "children" : [
                1
            ],
            "name" : "Radio",
            "rotation" : [
                -0.7071068286895752,
                0.0,
                -0.0,
                0.7071067094802856
            ],
            "scale" : [
                0.9805647730827332,
                0.6205045580863953,
                1.0000001192092896
            ],
            "translation" : [
                0.0,
                115.6868667602539,
                -0.0
            ]
        },
        {
            "children" : [
                2
            ],
            "name" : "RootNode"
        },
        {
            "children" : [
                3
            ],
            "name" : "radio_low.FBX",
            "rotation" : [
                0.7071068286895752,
                0.0,
                -0.0,
                0.7071067094802856
            ],
            "scale" : [
                1.0,
                1.0000001192092896,
                1.0000001192092896
            ]
        },
        {
            "children" : [
                4
            ],
            "name" : "RootNode (model correction matrix)"
        },
        {
            "children" : [
                5
            ],
            "name" : "RootNode (gltf orientation matrix)",
            "rotation" : [
                -0.7071068286895752,
                0.0,
                -0.0,
                0.7071067094802856
            ],
            "scale" : [
                1.0,
                1.0000001192092896,
                1.0000001192092896
            ]
        }
    ],
    "samplers" : [
        {}
    ],
    "scene" : 0,
    "scenes" : [
        {
            "name" : "Scene",
            "nodes" : [
                6
            ]
        }
    ],
    "textures" : [
        {
            "sampler" : 0,
            "source" : 0
        },
        {
            "sampler" : 0,
            "source" : 1
        },
        {
            "sampler" : 0,
            "source" : 2
        }
    ]
}
