{
    "asset" : {
        "generator" : "Khronos glTF Blender I/O v1.6.16",
        "version" : "2.0"
    },
    "scene" : 0,
    "scenes" : [
        {
            "name" : "Scene",
            "nodes" : [
                6
            ]
        }
    ],
    "nodes" : [
        {
            "mesh" : 0,
            "name" : "Radio_20 - Default_0",
            "scale" : [
                0.007993617095053196,
                0.007993617095053196,
                0.007993617095053196
            ],
            "translation" : [
                0,
                2.504885196685791e-05,
                0
            ]
        },
        {
            "children" : [
                0
            ],
            "name" : "Untitled",
            "translation" : [
                0,
                0,
                -115.6868667602539
            ]
        },
        {
            "children" : [
                1
            ],
            "name" : "Radio",
            "rotation" : [
                -0.7071068286895752,
                0,
                0,
                0.7071067094802856
            ],
            "scale" : [
                0.9805647730827332,
                0.6205045580863953,
                1
            ],
            "translation" : [
                0,
                115.6868667602539,
                0
            ]
        },
        {
            "children" : [
                2
            ],
            "name" : "RootNode"
        },
        {
            "children" : [
                3
            ],
            "name" : "radio_low.FBX",
            "rotation" : [
                0.7071068286895752,
                0,
                0,
                0.7071067094802856
            ]
        },
        {
            "children" : [
                4
            ],
            "name" : "RootNode (model correction matrix)"
        },
        {
            "children" : [
                5
            ],
            "name" : "RootNode (gltf orientation matrix)",
            "rotation" : [
                -0.7071068286895752,
                0,
                0,
                0.7071067094802856
            ]
        }
    ],
    "materials" : [
        {
            "doubleSided" : true,
            "name" : "20_-_Default",
            "normalTexture" : {
                "index" : 0
            },
            "pbrMetallicRoughness" : {
                "baseColorTexture" : {
                    "index" : 1
                },
                "metallicRoughnessTexture" : {
                    "index" : 2
                }
            }
        }
    ],
    "meshes" : [
        {
            "name" : "Radio_20 - Default_0",
            "primitives" : [
                {
                    "attributes" : {
                        "POSITION" : 0,
                        "NORMAL" : 1,
                        "TEXCOORD_0" : 2
                    },
                    "indices" : 3,
                    "material" : 0
                }
            ]
        }
    ],
    "textures" : [
        {
            "sampler" : 0,
            "source" : 0
        },
        {
            "sampler" : 0,
            "source" : 1
        },
        {
            "sampler" : 0,
            "source" : 2
        }
    ],
    "images" : [
        {
            "mimeType" : "image/jpeg",
            "name" : "images[0]",
            "uri" : "images0.jpg"
        },
        {
            "mimeType" : "image/jpeg",
            "name" : "images[2]",
            "uri" : "images2.jpg"
        },
        {
            "mimeType" : "image/png",
            "name" : "images[1]",
            "uri" : "images1.png"
        }
    ],
    "accessors" : [
        {
            "bufferView" : 0,
            "componentType" : 5126,
            "count" : 1276,
            "max" : [
                150.1399688720703,
                59.04674530029297,
                125.57865142822266
            ],
            "min" : [
                -127.80953979492188,
                -51.518592834472656,
                -76.59227752685547
            ],
            "type" : "VEC3"
        },
        {
            "bufferView" : 1,
            "componentType" : 5126,
            "count" : 1276,
            "type" : "VEC3"
        },
        {
            "bufferView" : 2,
            "componentType" : 5126,
            "count" : 1276,
            "type" : "VEC2"
        },
        {
            "bufferView" : 3,
            "componentType" : 5123,
            "count" : 2526,
            "type" : "SCALAR"
        }
    ],
    "bufferViews" : [
        {
            "buffer" : 0,
            "byteLength" : 15312,
            "byteOffset" : 0
        },
        {
            "buffer" : 0,
            "byteLength" : 15312,
            "byteOffset" : 15312
        },
        {
            "buffer" : 0,
            "byteLength" : 10208,
            "byteOffset" : 30624
        },
        {
            "buffer" : 0,
            "byteLength" : 5052,
            "byteOffset" : 40832
        }
    ],
    "samplers" : [
        {
            "magFilter" : 9729,
            "minFilter" : 9987
        }
    ],
    "buffers" : [
        {
            "byteLength" : 45884,
            "uri" : "scene.bin"
        }
    ]
}
