{
    "accessors" : [
        {
            "bufferView" : 0,
            "componentType" : 5123,
            "count" : 38280,
            "max" : [
                7237
            ],
            "min" : [
                0
            ],
            "type" : "SCALAR"
        },
        {
            "bufferView" : 1,
            "componentType" : 5126,
            "count" : 7238,
            "max" : [
                0.6246389746665955,
                1.8248399496078491,
                0.17125900089740753
            ],
            "min" : [
                -0.6244900226593018,
                0.00990699976682663,
                -0.18585200607776642
            ],
            "type" : "VEC3"
        },
        {
            "bufferView" : 2,
            "componentType" : 5126,
            "count" : 7238,
            "max" : [
                0.99993896484375,
                0.99981689453125,
                0.999908447265625
            ],
            "min" : [
                -0.99993896484375,
                -0.999847412109375,
                -0.999542236328125
            ],
            "type" : "VEC3"
        },
        {
            "bufferView" : 3,
            "componentType" : 5126,
            "count" : 7238,
            "max" : [
                1.0,
                0.9999440908432007,
                0.9999889731407166,
                1.0
            ],
            "min" : [
                -1.0,
                -0.9775266647338867,
                -0.9998528957366943,
                -1.0
            ],
            "type" : "VEC4"
        },
        {
            "bufferView" : 4,
            "componentType" : 5126,
            "count" : 7238,
            "max" : [
                0.9814450144767761,
                0.9819339998066425
            ],
            "min" : [
                0.027312999591231346,
                0.02063000202178955
            ],
            "type" : "VEC2"
        },
        {
            "bufferView" : 5,
            "componentType" : 5123,
            "count" : 36732,
            "max" : [
                8651
            ],
            "min" : [
                0
            ],
            "type" : "SCALAR"
        },
        {
            "bufferView" : 6,
            "componentType" : 5126,
            "count" : 8652,
            "max" : [
                0.5320540070533752,
                1.6342699527740479,
                0.1370919942855835
            ],
            "min" : [
                -0.5320540070533752,
                0.1854179948568344,
                -0.23216700553894043
            ],
            "type" : "VEC3"
        },
        {
            "bufferView" : 7,
            "componentType" : 5126,
            "count" : 8652,
            "max" : [
                0.999908447265625,
                0.999908447265625,
                1.0
            ],
            "min" : [
                -0.99993896484375,
                -0.999969482421875,
                -0.99981689453125
            ],
            "type" : "VEC3"
        },
        {
            "bufferView" : 8,
            "componentType" : 5126,
            "count" : 8652,
            "max" : [
                1.0,
                0.9997764825820923,
                0.9999364018440247,
                1.0
            ],
            "min" : [
                -1.0,
                -0.9999924302101135,
                -0.9999775290489197,
                -1.0
            ],
            "type" : "VEC4"
        },
        {
            "bufferView" : 9,
            "componentType" : 5126,
            "count" : 8652,
            "max" : [
                1.995116949081421,
                0.9985350000206381
            ],
            "min" : [
                -3.099999958067201e-05,
                0.004218995571136475
            ],
            "type" : "VEC2"
        }
    ],
    "asset" : {
        "generator" : "Khronos Blender glTF 2.0 exporter",
        "version" : "2.0"
    },
    "bufferViews" : [
        {
            "buffer" : 0,
            "byteLength" : 76560,
            "byteOffset" : 0,
            "target" : 34963
        },
        {
            "buffer" : 0,
            "byteLength" : 86856,
            "byteOffset" : 76560,
            "target" : 34962
        },
        {
            "buffer" : 0,
            "byteLength" : 86856,
            "byteOffset" : 163416,
            "target" : 34962
        },
        {
            "buffer" : 0,
            "byteLength" : 115808,
            "byteOffset" : 250272,
            "target" : 34962
        },
        {
            "buffer" : 0,
            "byteLength" : 57904,
            "byteOffset" : 366080,
            "target" : 34962
        },
        {
            "buffer" : 0,
            "byteLength" : 73464,
            "byteOffset" : 423984,
            "target" : 34963
        },
        {
            "buffer" : 0,
            "byteLength" : 103824,
            "byteOffset" : 497448,
            "target" : 34962
        },
        {
            "buffer" : 0,
            "byteLength" : 103824,
            "byteOffset" : 601272,
            "target" : 34962
        },
        {
            "buffer" : 0,
            "byteLength" : 138432,
            "byteOffset" : 705096,
            "target" : 34962
        },
        {
            "buffer" : 0,
            "byteLength" : 69216,
            "byteOffset" : 843528,
            "target" : 34962
        }
    ],
    "buffers" : [
        {
            "byteLength" : 912744,
            "uri" : "deadpool.bin"
        }
    ],
    "images" : [
        {
            "name" : "DEA_PC_DEADPOOL_Wade_Wilson_Deadpool_Default_Acc_D",
            "uri" : "DEA_PC_DEADPOOL_Wade_Wilson_Deadpool_Default_Acc_D.png"
        },
        {
            "name" : "DEA_PC_DEADPOOL_Wade_Wilson_Deadpool_Default_Body_D",
            "uri" : "DEA_PC_DEADPOOL_Wade_Wilson_Deadpool_Default_Body_D.png"
        }
    ],
    "materials" : [
        {
            "alphaMode" : "BLEND",
            "name" : "DEA_PC_DEA_WWI_DEF_A",
            "pbrMetallicRoughness" : {
                "baseColorFactor" : [
                    0.6399999856948853,
                    0.6399999856948853,
                    0.6399999856948853,
                    1.0
                ],
                "baseColorTexture" : {
                    "index" : 0
                },
                "metallicFactor" : 0.0
            }
        },
        {
            "alphaMode" : "BLEND",
            "name" : "DEA_PC_DEA_WWI_DEF_B",
            "pbrMetallicRoughness" : {
                "baseColorFactor" : [
                    0.6399999856948853,
                    0.6399999856948853,
                    0.6399999856948853,
                    1.0
                ],
                "baseColorTexture" : {
                    "index" : 1
                },
                "metallicFactor" : 0.0
            }
        }
    ],
    "meshes" : [
        {
            "name" : "DEA_PC_DEADPOOL_Wade_Wilson_Deadpool_Default",
            "primitives" : [
                {
                    "attributes" : {
                        "NORMAL" : 2,
                        "POSITION" : 1,
                        "TANGENT" : 3,
                        "TEXCOORD_0" : 4
                    },
                    "indices" : 0,
                    "material" : 1
                },
                {
                    "attributes" : {
                        "NORMAL" : 7,
                        "POSITION" : 6,
                        "TANGENT" : 8,
                        "TEXCOORD_0" : 9
                    },
                    "indices" : 5,
                    "material" : 0
                }
            ]
        }
    ],
    "nodes" : [
        {
            "name" : "Camera",
            "rotation" : [
                0.483536034822464,
                0.20870360732078552,
                0.33687159419059753,
                0.7804827094078064
            ],
            "translation" : [
                7.481131553649902,
                -6.5076398849487305,
                5.34366512298584
            ]
        },
        {
            "mesh" : 0,
            "name" : "DEA_PC_DEADPOOL_Wade_Wilson_Deadpool_Default",
            "rotation" : [
                0.7071068286895752,
                0.0,
                0.0,
                0.7071067094802856
            ],
            "translation" : [
                0.0,
                0.0,
                -0.0008504231809638441
            ]
        },
        {
            "name" : "Lamp",
            "rotation" : [
                0.16907575726509094,
                0.27217137813568115,
                0.7558802962303162,
                0.570947527885437
            ],
            "scale" : [
                1.0,
                0.9999999403953552,
                1.0
            ],
            "translation" : [
                4.076245307922363,
                1.0054539442062378,
                5.903861999511719
            ]
        }
    ],
    "samplers" : [
        {}
    ],
    "scene" : 0,
    "scenes" : [
        {
            "name" : "Scene",
            "nodes" : [
                1,
                2,
                0
            ]
        }
    ],
    "textures" : [
        {
            "sampler" : 0,
            "source" : 0
        },
        {
            "sampler" : 0,
            "source" : 1
        }
    ]
}
